<svg width="646" height="105" viewBox="0 0 646 105" fill="none" xmlns="http://www.w3.org/2000/svg">
<g filter="url(#filter0_f_50_2)">
<path d="M8.27815 65.3503C139.98 12.521 360.921 74.8299 435.081 87.4444C438.56 87.9577 442.061 88.4778 445.584 89.0047C442.517 88.64 439.005 88.1117 435.081 87.4444C206.974 53.7884 72.6329 49.3953 32.0702 71.2226C29.53 72.5895 8.33059 71.1103 7.07723 68.5123C6.49239 67.3 7.02892 65.8514 8.27815 65.3503Z" fill="#171717"/>
<path d="M492.382 45.0458C453.97 16.7966 317.315 -23.2065 85.5069 38.5818C84.3544 38.889 84.5351 40.5888 85.7266 40.5342L186.962 35.8927C187.535 35.8664 188.01 35.3204 188.325 34.8407C195.802 23.4352 335.715 -11.1413 472.595 48.4136C473.428 48.7758 473.421 49.9501 472.553 50.2156C434.859 61.7414 341.847 57.774 268.218 42.0407C267.143 41.811 266.692 42.9509 267.675 43.4432C281.529 50.3818 330.002 69.553 446.809 72.3727C447.122 72.3803 447.415 72.2565 447.621 72.0202C459.828 58.0029 532.634 45.6519 639.875 98.728C612.278 82.5944 609.959 60.5212 492.845 45.2266C492.676 45.2046 492.519 45.1467 492.382 45.0458Z" fill="#171717"/>
</g>
<path d="M8.27815 74.3972C139.98 21.5679 360.921 83.8768 435.081 96.4913C438.56 97.0046 442.061 97.5247 445.584 98.0516C442.517 97.6869 439.005 97.1586 435.081 96.4913C206.974 62.8352 72.6329 58.4422 32.0702 80.2695C29.53 81.6364 8.33059 80.1572 7.07723 77.5592C6.49239 76.3469 7.02892 74.8983 8.27815 74.3972Z" fill="url(#paint0_linear_50_2)"/>
<path d="M492.95 49.5692C454.538 21.32 317.883 -18.6831 86.075 43.1052C84.9225 43.4124 85.1032 45.1122 86.2947 45.0576L187.53 40.4161C188.103 40.3899 188.578 39.8438 188.893 39.3641C196.37 27.9586 336.283 -6.61787 473.163 52.937C473.996 53.2992 473.989 54.4735 473.121 54.739C435.427 66.2648 342.415 62.2974 268.786 46.5641C267.711 46.3344 267.261 47.4743 268.243 47.9666C282.097 54.9052 330.57 74.0764 447.377 76.8961C447.69 76.9037 447.983 76.7799 448.189 76.5436C460.396 62.5264 533.202 50.1753 640.443 103.251C612.846 87.1178 610.527 65.0447 493.413 49.7501C493.244 49.728 493.087 49.6701 492.95 49.5692Z" fill="url(#paint1_linear_50_2)"/>
<defs>
<filter id="filter0_f_50_2" x="0.840637" y="0" width="645.034" height="104.729" filterUnits="userSpaceOnUse" color-interpolation-filters="sRGB">
<feFlood flood-opacity="0" result="BackgroundImageFix"/>
<feBlend mode="normal" in="SourceGraphic" in2="BackgroundImageFix" result="shape"/>
<feGaussianBlur stdDeviation="3" result="effect1_foregroundBlur_50_2"/>
</filter>
<linearGradient id="paint0_linear_50_2" x1="225.792" y1="53.4648" x2="225.792" y2="104" gradientUnits="userSpaceOnUse">
<stop stop-color="#FCFCFC"/>
<stop offset="1" stop-color="#1E1E1E"/>
</linearGradient>
<linearGradient id="paint1_linear_50_2" x1="358.894" y1="10.5234" x2="358.894" y2="103.251" gradientUnits="userSpaceOnUse">
<stop stop-color="#FCFCFC"/>
<stop offset="1" stop-color="#1E1E1E"/>
</linearGradient>
</defs>
</svg>
