<svg width="478" height="202" viewBox="0 0 478 202" fill="none" xmlns="http://www.w3.org/2000/svg">
<path d="M76.008 191V171.576H69.512V167.32H87.272V171.576H80.744V191H76.008ZM92.0692 191V167.32H96.8053V191H92.0692ZM103.153 191V167.32H112.945C113.884 167.32 114.758 167.437 115.569 167.672C116.38 167.885 117.094 168.269 117.713 168.824C118.332 169.379 118.812 170.147 119.153 171.128C119.516 172.109 119.697 173.368 119.697 174.904C119.697 175.992 119.59 176.92 119.377 177.688C119.164 178.456 118.876 179.085 118.513 179.576C118.172 180.067 117.777 180.461 117.329 180.76C116.881 181.059 116.422 181.304 115.953 181.496L120.369 191H115.537L111.729 182.232C111.473 182.232 111.174 182.232 110.833 182.232C110.513 182.211 110.182 182.2 109.841 182.2C109.5 182.2 109.158 182.2 108.817 182.2C108.476 182.2 108.166 182.189 107.889 182.168V191H103.153ZM107.889 178.424H112.113C112.54 178.424 112.924 178.371 113.265 178.264C113.606 178.157 113.905 177.976 114.161 177.72C114.417 177.443 114.609 177.08 114.737 176.632C114.886 176.184 114.961 175.608 114.961 174.904C114.961 174.243 114.886 173.699 114.737 173.272C114.609 172.824 114.417 172.483 114.161 172.248C113.905 171.992 113.606 171.821 113.265 171.736C112.924 171.629 112.54 171.576 112.113 171.576H107.889V178.424ZM131.216 191.16C130.704 191.16 130.117 191.107 129.456 191C128.794 190.915 128.154 190.701 127.536 190.36C126.938 190.019 126.437 189.507 126.032 188.824C125.648 188.12 125.456 187.16 125.456 185.944V172.728C125.456 171.683 125.616 170.808 125.936 170.104C126.256 169.4 126.682 168.845 127.216 168.44C127.749 168.035 128.336 167.747 128.976 167.576C129.616 167.405 130.245 167.32 130.864 167.32C132.464 167.32 133.872 167.341 135.088 167.384C136.325 167.427 137.434 167.48 138.416 167.544C139.397 167.587 140.293 167.651 141.104 167.736V171.704H132.272C131.61 171.704 131.098 171.864 130.736 172.184C130.373 172.504 130.192 172.995 130.192 173.656V177.08L139.568 177.336V181.08L130.192 181.336V184.6C130.192 185.155 130.277 185.592 130.448 185.912C130.64 186.211 130.885 186.424 131.184 186.552C131.504 186.659 131.834 186.712 132.176 186.712H141.104V190.68C140.165 190.787 139.12 190.872 137.968 190.936C136.837 191 135.685 191.053 134.512 191.096C133.36 191.139 132.261 191.16 131.216 191.16ZM162.559 191.16C161.386 191.16 160.319 190.893 159.359 190.36C158.421 189.827 157.685 189.091 157.151 188.152C156.618 187.192 156.351 186.083 156.351 184.824C156.351 183.672 156.597 182.595 157.087 181.592C157.578 180.568 158.293 179.651 159.231 178.84L161.151 177.208L160.735 176.568C160.074 175.544 159.658 174.691 159.487 174.008C159.338 173.325 159.263 172.696 159.263 172.12C159.263 170.968 159.53 170.051 160.063 169.368C160.618 168.685 161.343 168.195 162.239 167.896C163.157 167.576 164.17 167.416 165.279 167.416C166.09 167.416 166.89 167.448 167.679 167.512C168.469 167.576 169.183 167.661 169.823 167.768C170.485 167.875 171.039 168.003 171.487 168.152V171.608H166.175C165.493 171.608 164.959 171.747 164.575 172.024C164.213 172.28 164.031 172.675 164.031 173.208C164.031 173.592 164.149 174.019 164.383 174.488C164.639 174.957 165.023 175.544 165.535 176.248L169.951 182.328L174.527 178.2L176.255 180.344L174.111 183.608L172.287 185.368L176.511 191H171.615L169.279 188.056L168.095 189.08C167.221 189.848 166.357 190.392 165.503 190.712C164.65 191.011 163.669 191.16 162.559 191.16ZM163.391 186.84C163.839 186.84 164.266 186.765 164.671 186.616C165.098 186.445 165.535 186.136 165.983 185.688L166.783 184.888L163.423 180.44L162.239 181.528C161.706 182.019 161.343 182.488 161.151 182.936C160.959 183.363 160.863 183.811 160.863 184.28C160.863 185.027 161.087 185.645 161.535 186.136C162.005 186.605 162.623 186.84 163.391 186.84ZM192.353 191V167.32H202.337C203.105 167.32 203.884 167.416 204.673 167.608C205.484 167.779 206.22 168.141 206.881 168.696C207.564 169.229 208.108 170.04 208.513 171.128C208.94 172.216 209.153 173.656 209.153 175.448C209.153 177.24 208.94 178.691 208.513 179.8C208.108 180.909 207.574 181.752 206.913 182.328C206.252 182.904 205.537 183.288 204.769 183.48C204.001 183.672 203.254 183.768 202.529 183.768C202.145 183.768 201.697 183.757 201.185 183.736C200.673 183.693 200.15 183.64 199.617 183.576C199.105 183.512 198.625 183.459 198.177 183.416C197.729 183.352 197.366 183.299 197.089 183.256V191H192.353ZM197.089 179.512H201.793C202.348 179.512 202.817 179.384 203.201 179.128C203.606 178.851 203.905 178.424 204.097 177.848C204.289 177.251 204.385 176.461 204.385 175.48C204.385 174.52 204.278 173.763 204.065 173.208C203.873 172.632 203.585 172.216 203.201 171.96C202.838 171.704 202.401 171.576 201.889 171.576H197.089V179.512ZM211.214 191L218.638 167.32H224.622L232.046 191H227.118L225.614 186.04H217.55L216.078 191H211.214ZM218.67 181.784H224.494L221.582 171.384L218.67 181.784ZM236.864 191V167.32H241.6V191H236.864ZM248.108 191V167.32H251.916L261.836 182.936V167.32H266.572V191H262.764L252.876 175.384V191H248.108ZM277.679 191V171.576H271.183V167.32H288.943V171.576H282.415V191H277.679ZM311.366 191.192C310.748 191.192 310.108 191.171 309.446 191.128C308.806 191.107 308.145 191.064 307.462 191C306.801 190.915 306.172 190.829 305.574 190.744C304.977 190.637 304.433 190.52 303.942 190.392V186.648C304.582 186.712 305.308 186.765 306.118 186.808C306.929 186.851 307.772 186.883 308.646 186.904C309.521 186.925 310.353 186.936 311.142 186.936C311.953 186.936 312.646 186.872 313.222 186.744C313.82 186.595 314.278 186.349 314.598 186.008C314.918 185.645 315.078 185.155 315.078 184.536V183.672C315.078 182.968 314.865 182.435 314.438 182.072C314.033 181.688 313.446 181.496 312.678 181.496H310.662C308.401 181.496 306.662 181.005 305.446 180.024C304.252 179.021 303.654 177.325 303.654 174.936V173.784C303.654 171.48 304.316 169.795 305.638 168.728C306.961 167.661 308.849 167.128 311.302 167.128C312.177 167.128 313.041 167.171 313.894 167.256C314.769 167.341 315.601 167.448 316.39 167.576C317.201 167.683 317.894 167.8 318.47 167.928V171.672C317.489 171.608 316.39 171.544 315.174 171.48C313.98 171.416 312.87 171.384 311.846 171.384C311.121 171.384 310.47 171.459 309.894 171.608C309.34 171.736 308.913 171.992 308.614 172.376C308.316 172.76 308.166 173.304 308.166 174.008V174.648C308.166 175.48 308.401 176.077 308.87 176.44C309.34 176.803 310.033 176.984 310.95 176.984H313.286C314.716 176.984 315.889 177.251 316.806 177.784C317.745 178.296 318.438 179.011 318.886 179.928C319.356 180.845 319.59 181.891 319.59 183.064V184.408C319.59 186.264 319.238 187.683 318.534 188.664C317.852 189.645 316.892 190.317 315.654 190.68C314.438 191.021 313.009 191.192 311.366 191.192ZM325.314 191V167.32H330.05V177.176H338.978V167.32H343.746V191H338.978V181.432H330.05V191H325.314ZM359.206 191.192C357.585 191.192 356.166 191.043 354.95 190.744C353.734 190.424 352.71 189.848 351.878 189.016C351.068 188.163 350.46 186.947 350.054 185.368C349.649 183.789 349.446 181.731 349.446 179.192C349.446 176.653 349.649 174.595 350.054 173.016C350.481 171.416 351.1 170.189 351.91 169.336C352.721 168.483 353.734 167.896 354.95 167.576C356.166 167.256 357.585 167.096 359.206 167.096C360.828 167.096 362.246 167.256 363.462 167.576C364.678 167.896 365.692 168.483 366.502 169.336C367.313 170.189 367.921 171.416 368.326 173.016C368.732 174.595 368.934 176.653 368.934 179.192C368.934 181.731 368.732 183.789 368.326 185.368C367.921 186.947 367.313 188.163 366.502 189.016C365.692 189.848 364.678 190.424 363.462 190.744C362.246 191.043 360.828 191.192 359.206 191.192ZM359.206 186.936C360.166 186.936 360.966 186.829 361.606 186.616C362.246 186.403 362.748 186.029 363.11 185.496C363.494 184.941 363.772 184.163 363.942 183.16C364.113 182.136 364.198 180.813 364.198 179.192C364.198 177.485 364.113 176.12 363.942 175.096C363.772 174.072 363.494 173.293 363.11 172.76C362.748 172.205 362.246 171.832 361.606 171.64C360.966 171.448 360.166 171.352 359.206 171.352C358.289 171.352 357.51 171.448 356.87 171.64C356.23 171.832 355.708 172.205 355.302 172.76C354.918 173.293 354.63 174.072 354.438 175.096C354.268 176.12 354.182 177.485 354.182 179.192C354.182 180.813 354.257 182.136 354.406 183.16C354.577 184.163 354.854 184.941 355.238 185.496C355.622 186.029 356.134 186.403 356.774 186.616C357.436 186.829 358.246 186.936 359.206 186.936ZM374.669 191V167.32H384.653C385.421 167.32 386.2 167.416 386.989 167.608C387.8 167.779 388.536 168.141 389.197 168.696C389.88 169.229 390.424 170.04 390.829 171.128C391.256 172.216 391.469 173.656 391.469 175.448C391.469 177.24 391.256 178.691 390.829 179.8C390.424 180.909 389.891 181.752 389.229 182.328C388.568 182.904 387.853 183.288 387.085 183.48C386.317 183.672 385.571 183.768 384.845 183.768C384.461 183.768 384.013 183.757 383.501 183.736C382.989 183.693 382.467 183.64 381.933 183.576C381.421 183.512 380.941 183.459 380.493 183.416C380.045 183.352 379.683 183.299 379.405 183.256V191H374.669ZM379.405 179.512H384.109C384.664 179.512 385.133 179.384 385.517 179.128C385.923 178.851 386.221 178.424 386.413 177.848C386.605 177.251 386.701 176.461 386.701 175.48C386.701 174.52 386.595 173.763 386.381 173.208C386.189 172.632 385.901 172.216 385.517 171.96C385.155 171.704 384.717 171.576 384.205 171.576H379.405V179.512Z" fill="#FCFCFC"/>
<path d="M39.12 28.8C45.648 28.8 50.96 29.408 55.056 30.624C59.152 31.84 62.16 33.92 64.08 36.864C66.064 39.744 67.056 43.776 67.056 48.96C67.056 51.584 66.64 54.048 65.808 56.352C65.04 58.592 63.664 60.448 61.68 61.92C59.76 63.392 57.072 64.32 53.616 64.704V65.28C54.832 65.408 56.176 65.792 57.648 66.432C59.12 67.008 60.496 68.032 61.776 69.504C63.056 70.912 63.952 72.96 64.464 75.648L69.648 96H47.856L43.536 76.32C43.152 74.464 42.544 73.248 41.712 72.672C40.944 72.096 39.664 71.808 37.872 71.808C33.072 71.744 29.136 71.712 26.064 71.712C23.056 71.712 20.496 71.68 18.384 71.616C16.272 71.552 14.16 71.456 12.048 71.328L12.336 57.12H38.64C40.624 57.12 42.16 56.928 43.248 56.544C44.336 56.16 45.072 55.488 45.456 54.528C45.904 53.504 46.128 52.096 46.128 50.304C46.128 48.448 45.904 47.04 45.456 46.08C45.072 45.12 44.336 44.448 43.248 44.064C42.16 43.68 40.624 43.488 38.64 43.488C31.984 43.488 26.384 43.52 21.84 43.584C17.296 43.648 14.192 43.776 12.528 43.968L10.992 29.76C13.936 29.44 16.688 29.216 19.248 29.088C21.872 28.96 24.72 28.896 27.792 28.896C30.928 28.832 34.704 28.8 39.12 28.8ZM31.44 29.76V96H10.992V29.76H31.44ZM103.323 29.76V96H82.683V29.76H103.323ZM179.671 29.76L163.543 90.432C163.159 92.096 162.327 93.44 161.047 94.464C159.767 95.488 158.231 96 156.439 96H138.199C136.407 96 134.871 95.488 133.591 94.464C132.311 93.44 131.479 92.096 131.095 90.432L114.967 29.76H136.375L144.919 72.864C145.175 74.08 145.399 75.36 145.591 76.704C145.783 77.984 145.975 79.232 146.167 80.448H148.471C148.599 79.232 148.759 77.984 148.951 76.704C149.207 75.36 149.463 74.08 149.719 72.864L158.263 29.76H179.671ZM224.775 29.76C226.439 29.76 227.911 30.24 229.191 31.2C230.471 32.16 231.335 33.472 231.783 35.136L248.967 96H227.751L217.767 52.896C217.511 51.68 217.287 50.432 217.095 49.152C216.903 47.808 216.743 46.528 216.615 45.312H214.023C213.895 46.528 213.735 47.808 213.543 49.152C213.351 50.432 213.127 51.68 212.871 52.896L202.887 96H181.671L198.855 35.136C199.303 33.472 200.167 32.16 201.447 31.2C202.727 30.24 204.199 29.76 205.863 29.76H224.775ZM232.935 67.104V81.696H197.703V67.104H232.935ZM284.93 28.416C288.386 28.416 292.258 28.64 296.546 29.088C300.898 29.472 305.058 30.368 309.026 31.776L307.778 45.12C304.898 45.056 301.314 45.024 297.026 45.024C292.802 44.96 288.61 44.928 284.45 44.928C283.234 44.928 282.21 44.96 281.378 45.024C280.61 45.088 280.002 45.216 279.554 45.408C279.106 45.6 278.786 45.856 278.594 46.176C278.402 46.496 278.306 46.912 278.306 47.424C278.306 48.32 278.69 49.088 279.458 49.728C280.29 50.304 281.826 51.04 284.066 51.936L296.066 56.928C301.57 59.296 305.41 62.048 307.586 65.184C309.826 68.256 310.946 72.224 310.946 77.088C310.946 80.8 310.498 83.968 309.602 86.592C308.706 89.152 307.202 91.232 305.09 92.832C303.042 94.368 300.29 95.488 296.834 96.192C293.378 96.96 289.058 97.344 283.874 97.344C281.634 97.344 278.242 97.152 273.698 96.768C269.154 96.448 264.002 95.552 258.242 94.08L259.49 79.488C263.33 79.552 266.85 79.648 270.05 79.776C273.25 79.84 276.002 79.904 278.306 79.968C280.674 79.968 282.434 79.968 283.586 79.968C285.378 79.968 286.722 79.904 287.618 79.776C288.578 79.648 289.218 79.424 289.538 79.104C289.922 78.72 290.114 78.24 290.114 77.664C290.114 77.024 289.986 76.512 289.73 76.128C289.474 75.68 289.026 75.264 288.386 74.88C287.746 74.496 286.818 74.08 285.602 73.632L272.45 67.872C267.074 65.44 263.266 62.72 261.026 59.712C258.786 56.704 257.666 52.768 257.666 47.904C257.666 44.128 258.146 40.992 259.106 38.496C260.13 36 261.698 34.016 263.81 32.544C265.922 31.072 268.706 30.016 272.162 29.376C275.682 28.736 279.938 28.416 284.93 28.416Z" fill="#4201FF"/>
<g filter="url(#filter0_f_6_496)">
<path d="M7.67374 130.604C104.434 91.7911 266.758 137.569 321.243 146.837C323.799 147.214 326.371 147.596 328.959 147.983C326.706 147.715 324.125 147.327 321.243 146.837C153.654 122.11 54.9548 118.882 25.1536 134.919C23.2874 135.923 7.71227 134.836 6.79143 132.928C6.36176 132.037 6.75594 130.973 7.67374 130.604Z" fill="#171717"/>
<path d="M363.288 115.648C335.122 94.9892 235.519 65.835 66.7129 110.328C65.5595 110.632 65.7572 112.318 66.9487 112.263L138.671 108.975C139.244 108.948 139.737 108.436 140.098 107.99C147.031 99.4363 248.598 74.849 348.183 117.892C349.016 118.252 348.983 119.427 348.112 119.682C320.24 127.838 253.443 124.996 199.992 113.763C198.916 113.537 198.482 114.635 199.476 115.106C211.105 120.622 247.153 133.754 329.724 135.76C330.037 135.768 330.331 135.641 330.541 135.408C339.759 125.15 393.16 116.254 471.703 155.127C451.433 143.277 449.725 127.065 363.751 115.829C363.582 115.807 363.425 115.748 363.288 115.648Z" fill="#171717"/>
</g>
<path d="M7.67374 137.251C104.434 98.4376 266.758 144.216 321.243 153.483C323.799 153.86 326.371 154.243 328.959 154.63C326.706 154.362 324.125 153.974 321.243 153.483C153.654 128.756 54.9548 125.529 25.1536 141.565C23.2874 142.569 7.71227 141.483 6.79143 139.574C6.36176 138.683 6.75594 137.619 7.67374 137.251Z" fill="url(#paint0_linear_6_496)"/>
<path d="M363.705 118.971C335.539 98.3124 235.936 69.1582 67.1303 113.651C65.9769 113.955 66.1745 115.641 67.366 115.586L139.089 112.298C139.662 112.272 140.155 111.759 140.516 111.314C147.448 102.759 249.016 78.1723 348.6 121.215C349.434 121.575 349.401 122.751 348.529 123.006C320.657 131.161 253.86 128.319 200.41 117.087C199.334 116.861 198.9 117.958 199.893 118.429C211.522 123.945 247.57 137.077 330.142 139.083C330.455 139.091 330.749 138.964 330.958 138.731C340.176 128.473 393.578 119.577 472.12 158.45C451.85 146.6 450.142 130.388 364.169 119.152C364 119.13 363.842 119.072 363.705 118.971Z" fill="url(#paint1_linear_6_496)"/>
<defs>
<filter id="filter0_f_6_496" x="0.617676" y="81" width="477.085" height="80.127" filterUnits="userSpaceOnUse" color-interpolation-filters="sRGB">
<feFlood flood-opacity="0" result="BackgroundImageFix"/>
<feBlend mode="normal" in="SourceGraphic" in2="BackgroundImageFix" result="shape"/>
<feGaussianBlur stdDeviation="3" result="effect1_foregroundBlur_6_496"/>
</filter>
<linearGradient id="paint0_linear_6_496" x1="167.479" y1="121.872" x2="167.479" y2="159" gradientUnits="userSpaceOnUse">
<stop stop-color="#FCFCFC"/>
<stop offset="1" stop-color="#1E1E1E"/>
</linearGradient>
<linearGradient id="paint1_linear_6_496" x1="265.269" y1="90.3232" x2="265.269" y2="158.45" gradientUnits="userSpaceOnUse">
<stop stop-color="#FCFCFC"/>
<stop offset="1" stop-color="#1E1E1E"/>
</linearGradient>
</defs>
</svg>
